<mxfile host="www.draw.io" modified="2019-12-24T12:21:33.637Z" agent="Mozilla/5.0 (X11; Linux x86_64) AppleWebKit/537.36 (KHTML, like Gecko) Chrome/79.0.3945.88 Safari/537.36" etag="lrZticmIzkM-_CmRzgKC" version="12.4.3" type="github" pages="1">
  <diagram id="RzD0Ts5M7BOjjJ8hxcEr" name="第 1 页">
    <mxGraphModel dx="2409" dy="482" grid="1" gridSize="10" guides="1" tooltips="1" connect="1" arrows="1" fold="1" page="1" pageScale="1" pageWidth="1600" pageHeight="900" math="0" shadow="0">
      <root>
        <mxCell id="0"/>
        <mxCell id="1" parent="0"/>
        <mxCell id="8TviweCEKHw1Rt5PnE89-34" value="" style="ellipse;whiteSpace=wrap;html=1;aspect=fixed;" vertex="1" parent="1">
          <mxGeometry x="-261" y="410" width="313.5" height="313.5" as="geometry"/>
        </mxCell>
        <mxCell id="8TviweCEKHw1Rt5PnE89-1" value="产品经理(需求提出人)" style="aspect=fixed;html=1;points=[];align=center;image;fontSize=12;image=img/lib/mscae/Person.svg;" vertex="1" parent="1">
          <mxGeometry x="-450" y="531.75" width="37" height="50" as="geometry"/>
        </mxCell>
        <mxCell id="8TviweCEKHw1Rt5PnE89-2" value="后台开发A" style="aspect=fixed;html=1;points=[];align=center;image;fontSize=12;image=img/lib/mscae/Person.svg;" vertex="1" parent="1">
          <mxGeometry x="443" y="980" width="37" height="50" as="geometry"/>
        </mxCell>
        <mxCell id="8TviweCEKHw1Rt5PnE89-3" value="后台开发" style="aspect=fixed;html=1;points=[];align=center;image;fontSize=12;image=img/lib/mscae/Person.svg;" vertex="1" parent="1">
          <mxGeometry x="970" y="630" width="37" height="50" as="geometry"/>
        </mxCell>
        <mxCell id="8TviweCEKHw1Rt5PnE89-4" value="前端开发" style="aspect=fixed;html=1;points=[];align=center;image;fontSize=12;image=img/lib/mscae/Person.svg;" vertex="1" parent="1">
          <mxGeometry x="443" y="630" width="37" height="50" as="geometry"/>
        </mxCell>
        <mxCell id="8TviweCEKHw1Rt5PnE89-17" value="&lt;font style=&quot;font-size: 15px&quot;&gt;我要提问题&lt;/font&gt;" style="edgeStyle=none;rounded=0;orthogonalLoop=1;jettySize=auto;html=1;entryX=0.5;entryY=0;entryDx=0;entryDy=0;startArrow=none;startFill=0;" edge="1" parent="1" source="8TviweCEKHw1Rt5PnE89-5" target="8TviweCEKHw1Rt5PnE89-16">
          <mxGeometry relative="1" as="geometry"/>
        </mxCell>
        <mxCell id="8TviweCEKHw1Rt5PnE89-5" value="测试员" style="aspect=fixed;html=1;points=[];align=center;image;fontSize=12;image=img/lib/mscae/Person.svg;" vertex="1" parent="1">
          <mxGeometry x="703.5" y="70" width="37" height="50" as="geometry"/>
        </mxCell>
        <mxCell id="8TviweCEKHw1Rt5PnE89-10" value="后台开发B" style="aspect=fixed;html=1;points=[];align=center;image;fontSize=12;image=img/lib/mscae/Person.svg;" vertex="1" parent="1">
          <mxGeometry x="970" y="980" width="37" height="50" as="geometry"/>
        </mxCell>
        <mxCell id="8TviweCEKHw1Rt5PnE89-15" value="&lt;h1 style=&quot;font-size: 20px&quot;&gt;&lt;font style=&quot;font-size: 20px&quot;&gt;提bug要素&lt;/font&gt;&lt;/h1&gt;&lt;p&gt;&lt;ol&gt;&lt;li&gt;类别: bug or&amp;nbsp; 建议优化&lt;/li&gt;&lt;li&gt;&lt;font style=&quot;font-size: 12px&quot;&gt;环境:&lt;/font&gt;&lt;/li&gt;&lt;li&gt;时间: yyyy-MM-dd HH:mm&lt;/li&gt;&lt;li&gt;&lt;span&gt;现象描述:&lt;/span&gt;&lt;/li&gt;&lt;li&gt;&lt;span&gt;复现手段:&lt;/span&gt;&lt;/li&gt;&lt;li&gt;&lt;span&gt;截图(辅助现象描述,或者不易复现的问题)&lt;/span&gt;&lt;/li&gt;&lt;/ol&gt;&lt;/p&gt;" style="text;html=1;strokeColor=none;fillColor=none;spacing=5;spacingTop=-20;whiteSpace=wrap;overflow=hidden;rounded=0;" vertex="1" parent="1">
          <mxGeometry x="810" y="360" width="250" height="160" as="geometry"/>
        </mxCell>
        <mxCell id="8TviweCEKHw1Rt5PnE89-19" style="edgeStyle=none;rounded=0;orthogonalLoop=1;jettySize=auto;html=1;exitX=1;exitY=0.5;exitDx=0;exitDy=0;startArrow=none;startFill=0;" edge="1" parent="1" source="8TviweCEKHw1Rt5PnE89-16" target="8TviweCEKHw1Rt5PnE89-15">
          <mxGeometry relative="1" as="geometry"/>
        </mxCell>
        <mxCell id="8TviweCEKHw1Rt5PnE89-21" value="bug 类型" style="text;html=1;align=center;verticalAlign=middle;resizable=0;points=[];;labelBackgroundColor=#ffffff;" vertex="1" connectable="0" parent="8TviweCEKHw1Rt5PnE89-19">
          <mxGeometry x="-0.3016" y="-2" relative="1" as="geometry">
            <mxPoint as="offset"/>
          </mxGeometry>
        </mxCell>
        <mxCell id="8TviweCEKHw1Rt5PnE89-20" style="edgeStyle=none;rounded=0;orthogonalLoop=1;jettySize=auto;html=1;exitX=0;exitY=0.5;exitDx=0;exitDy=0;entryX=0.5;entryY=0;entryDx=0;entryDy=0;startArrow=none;startFill=0;" edge="1" parent="1" source="8TviweCEKHw1Rt5PnE89-16" target="8TviweCEKHw1Rt5PnE89-18">
          <mxGeometry relative="1" as="geometry"/>
        </mxCell>
        <mxCell id="8TviweCEKHw1Rt5PnE89-22" value="建议优化 类型" style="text;html=1;align=center;verticalAlign=middle;resizable=0;points=[];;labelBackgroundColor=#ffffff;" vertex="1" connectable="0" parent="8TviweCEKHw1Rt5PnE89-20">
          <mxGeometry x="-0.1719" y="-2" relative="1" as="geometry">
            <mxPoint as="offset"/>
          </mxGeometry>
        </mxCell>
        <mxCell id="8TviweCEKHw1Rt5PnE89-16" value="" style="rhombus;whiteSpace=wrap;html=1;" vertex="1" parent="1">
          <mxGeometry x="707" y="230" width="30" height="50" as="geometry"/>
        </mxCell>
        <mxCell id="8TviweCEKHw1Rt5PnE89-18" value="&lt;h1 style=&quot;font-size: 20px&quot;&gt;&lt;font style=&quot;font-size: 20px&quot;&gt;提建议优化要素&lt;/font&gt;&lt;/h1&gt;&lt;p&gt;&lt;ol&gt;&lt;li&gt;类别: bug or&amp;nbsp; 建议优化&lt;/li&gt;&lt;li&gt;&lt;font style=&quot;font-size: 12px&quot;&gt;环境:&lt;/font&gt;&lt;/li&gt;&lt;li&gt;时间: yyyy-MM-dd HH&lt;/li&gt;&lt;li&gt;&lt;span&gt;现象描述:&lt;/span&gt;&lt;/li&gt;&lt;/ol&gt;&lt;/p&gt;" style="text;html=1;strokeColor=none;fillColor=none;spacing=5;spacingTop=-20;whiteSpace=wrap;overflow=hidden;rounded=0;" vertex="1" parent="1">
          <mxGeometry x="480" y="360" width="250" height="160" as="geometry"/>
        </mxCell>
        <mxCell id="8TviweCEKHw1Rt5PnE89-24" value="&lt;font style=&quot;font-size: 20px&quot;&gt;开发前&lt;/font&gt;" style="text;html=1;strokeColor=none;fillColor=none;align=center;verticalAlign=middle;whiteSpace=wrap;rounded=0;" vertex="1" parent="1">
          <mxGeometry x="650" y="570" width="100" height="30" as="geometry"/>
        </mxCell>
        <mxCell id="8TviweCEKHw1Rt5PnE89-25" value="&lt;font style=&quot;font-size: 20px&quot;&gt;联调&lt;/font&gt;" style="text;html=1;strokeColor=none;fillColor=none;align=center;verticalAlign=middle;whiteSpace=wrap;rounded=0;" vertex="1" parent="1">
          <mxGeometry x="650" y="750" width="100" height="30" as="geometry"/>
        </mxCell>
        <mxCell id="8TviweCEKHw1Rt5PnE89-26" value="swagger&lt;br&gt;文档" style="shape=note;whiteSpace=wrap;html=1;backgroundOutline=1;darkOpacity=0.05;" vertex="1" parent="1">
          <mxGeometry x="670" y="620" width="80" height="100" as="geometry"/>
        </mxCell>
        <mxCell id="8TviweCEKHw1Rt5PnE89-27" value="&lt;font style=&quot;font-size: 20px&quot;&gt;模块交互&lt;/font&gt;" style="text;html=1;strokeColor=none;fillColor=none;align=center;verticalAlign=middle;whiteSpace=wrap;rounded=0;" vertex="1" parent="1">
          <mxGeometry x="677" y="910" width="90" height="30" as="geometry"/>
        </mxCell>
        <mxCell id="8TviweCEKHw1Rt5PnE89-28" value="接口定义" style="shape=note;whiteSpace=wrap;html=1;backgroundOutline=1;darkOpacity=0.05;" vertex="1" parent="1">
          <mxGeometry x="687" y="970" width="80" height="100" as="geometry"/>
        </mxCell>
        <mxCell id="8TviweCEKHw1Rt5PnE89-29" value="&lt;font style=&quot;font-size: 20px&quot;&gt;单元测试&lt;/font&gt;" style="text;html=1;strokeColor=none;fillColor=none;align=center;verticalAlign=middle;whiteSpace=wrap;rounded=0;" vertex="1" parent="1">
          <mxGeometry x="682" y="1110" width="90" height="30" as="geometry"/>
        </mxCell>
        <mxCell id="8TviweCEKHw1Rt5PnE89-30" value="开发" style="aspect=fixed;html=1;points=[];align=center;image;fontSize=12;image=img/lib/mscae/Person.svg;" vertex="1" parent="1">
          <mxGeometry x="-123" y="430" width="37" height="50" as="geometry"/>
        </mxCell>
        <mxCell id="8TviweCEKHw1Rt5PnE89-44" style="edgeStyle=none;rounded=0;orthogonalLoop=1;jettySize=auto;html=1;startArrow=none;startFill=0;endArrow=classic;endFill=1;" edge="1" parent="1" source="8TviweCEKHw1Rt5PnE89-31" target="8TviweCEKHw1Rt5PnE89-37">
          <mxGeometry relative="1" as="geometry"/>
        </mxCell>
        <mxCell id="8TviweCEKHw1Rt5PnE89-31" value="测试" style="aspect=fixed;html=1;points=[];align=center;image;fontSize=12;image=img/lib/mscae/Person.svg;" vertex="1" parent="1">
          <mxGeometry x="-122.75" y="630" width="37" height="50" as="geometry"/>
        </mxCell>
        <mxCell id="8TviweCEKHw1Rt5PnE89-41" style="edgeStyle=none;rounded=0;orthogonalLoop=1;jettySize=auto;html=1;entryX=0.875;entryY=0.5;entryDx=0;entryDy=0;entryPerimeter=0;startArrow=none;startFill=0;endArrow=classic;endFill=1;" edge="1" parent="1" source="8TviweCEKHw1Rt5PnE89-32" target="8TviweCEKHw1Rt5PnE89-37">
          <mxGeometry relative="1" as="geometry"/>
        </mxCell>
        <mxCell id="8TviweCEKHw1Rt5PnE89-32" value="前端" style="aspect=fixed;html=1;points=[];align=center;image;fontSize=12;image=img/lib/mscae/Person.svg;" vertex="1" parent="1">
          <mxGeometry x="-10" y="531.75" width="37" height="50" as="geometry"/>
        </mxCell>
        <mxCell id="8TviweCEKHw1Rt5PnE89-36" style="edgeStyle=none;rounded=0;orthogonalLoop=1;jettySize=auto;html=1;startArrow=classic;startFill=1;" edge="1" parent="1" source="8TviweCEKHw1Rt5PnE89-33" target="8TviweCEKHw1Rt5PnE89-1">
          <mxGeometry relative="1" as="geometry"/>
        </mxCell>
        <mxCell id="8TviweCEKHw1Rt5PnE89-33" value="组长" style="aspect=fixed;html=1;points=[];align=center;image;fontSize=12;image=img/lib/mscae/Person.svg;" vertex="1" parent="1">
          <mxGeometry x="-280" y="531.75" width="37" height="50" as="geometry"/>
        </mxCell>
        <mxCell id="8TviweCEKHw1Rt5PnE89-35" value="&lt;font style=&quot;font-size: 14px&quot;&gt;&lt;b&gt;出口一致&lt;/b&gt;&lt;/font&gt;" style="text;html=1;strokeColor=none;fillColor=none;align=center;verticalAlign=middle;whiteSpace=wrap;rounded=0;" vertex="1" parent="1">
          <mxGeometry x="-320" y="500" width="59" height="20" as="geometry"/>
        </mxCell>
        <mxCell id="8TviweCEKHw1Rt5PnE89-40" style="edgeStyle=none;rounded=0;orthogonalLoop=1;jettySize=auto;html=1;exitX=0.625;exitY=0.2;exitDx=0;exitDy=0;exitPerimeter=0;entryX=-0.027;entryY=1.1;entryDx=0;entryDy=0;entryPerimeter=0;startArrow=classic;startFill=1;endArrow=none;endFill=0;" edge="1" parent="1" source="8TviweCEKHw1Rt5PnE89-37" target="8TviweCEKHw1Rt5PnE89-30">
          <mxGeometry relative="1" as="geometry"/>
        </mxCell>
        <mxCell id="8TviweCEKHw1Rt5PnE89-47" style="edgeStyle=none;rounded=0;orthogonalLoop=1;jettySize=auto;html=1;exitX=0.07;exitY=0.4;exitDx=0;exitDy=0;exitPerimeter=0;startArrow=none;startFill=0;endArrow=classic;endFill=1;" edge="1" parent="1" source="8TviweCEKHw1Rt5PnE89-37" target="8TviweCEKHw1Rt5PnE89-33">
          <mxGeometry relative="1" as="geometry"/>
        </mxCell>
        <mxCell id="8TviweCEKHw1Rt5PnE89-37" value="需求争议&lt;br&gt;排期争议" style="ellipse;shape=cloud;whiteSpace=wrap;html=1;" vertex="1" parent="1">
          <mxGeometry x="-190" y="520" width="100" height="70" as="geometry"/>
        </mxCell>
      </root>
    </mxGraphModel>
  </diagram>
</mxfile>
